<svg xmlns="http://www.w3.org/2000/svg" xmlns:oryx="http://www.b3mn.org/oryx" xmlns:svg="http://www.w3.org/2000/svg" xmlns:xlink="http://www.w3.org/1999/xlink" width="102" height="82" version="1.0"><oryx:magnets><oryx:magnet oryx:anchors="left" oryx:cx="0" oryx:cy="48.5"/><oryx:magnet oryx:anchors="bottom" oryx:cx="44" oryx:cy="97"/><oryx:magnet oryx:anchors="right" oryx:cx="88" oryx:cy="48.5"/><oryx:magnet oryx:anchors="top" oryx:cx="44" oryx:cy="0"/><oryx:magnet oryx:cx="44" oryx:cy="48.5" oryx:default="yes"/></oryx:magnets><g pointer-events="fill"><defs><radialGradient id="background" cx="10%" cy="10%" r="100%" fx="10%" fy="10%"><stop offset="0%" stop-color="#fff" stop-opacity="1"/><stop id="fill_el" offset="100%" stop-color="#fff" stop-opacity="1"/></radialGradient></defs><polyline id="frame" fill="#fff" stroke="#000" stroke-width="1" points="78 97 0 97 0 0 78 0" oryx:anchors="left right" oryx:resize="vertical horizontal"/><polyline id="celem2" fill="#fff" stroke="#000" stroke-width="1" points="78 97 88 97 88 10 78 10" oryx:anchors="right top bottom"/><polyline id="celem3" fill="url(#background) white" stroke="#000" stroke-width="1" points="88 10 78 0 78 10 88 10" oryx:anchors="right top"/><rect id="unvisibleBorder" width="88" height="97" x="0" y="0" fill="none" stroke="none" oryx:resize="horizontal vertical"/><polygon id="input" fill="#fff" stroke="#000" stroke-linecap="butt" stroke-linejoin="miter" stroke-miterlimit="10" stroke-width="1.4" points="9 13 19 13 19 10 25 16 19 22 19 19 9 19" oryx:anchors="left top"/><polygon id="output" fill="#000" stroke="#000" stroke-linecap="butt" stroke-linejoin="miter" stroke-miterlimit="10" stroke-width="1" points="9 13 19 13 19 10 25 16 19 22 19 19 9 19" oryx:anchors="left top"/><g id="collection" transform="translate(0,-2)"><path id="collectionpath" fill="none" stroke="#000" stroke-width="2" d="M41.833,86.5v10 M45.833,86.5v10 M49.833,86.5v10" oryx:anchors="bottom"/></g></g></svg>