<svg xmlns="http://www.w3.org/2000/svg" xmlns:oryx="http://www.b3mn.org/oryx" xmlns:svg="http://www.w3.org/2000/svg" xmlns:xlink="http://www.w3.org/1999/xlink" width="102" height="82" version="1.0"><oryx:magnets><oryx:magnet oryx:anchors="left" oryx:cx="1" oryx:cy="20"/><oryx:magnet oryx:anchors="left" oryx:cx="1" oryx:cy="40"/><oryx:magnet oryx:anchors="left" oryx:cx="1" oryx:cy="60"/><oryx:magnet oryx:anchors="bottom" oryx:cx="25" oryx:cy="79"/><oryx:magnet oryx:anchors="bottom" oryx:cx="50" oryx:cy="79"/><oryx:magnet oryx:anchors="bottom" oryx:cx="75" oryx:cy="79"/><oryx:magnet oryx:anchors="right" oryx:cx="99" oryx:cy="20"/><oryx:magnet oryx:anchors="right" oryx:cx="99" oryx:cy="40"/><oryx:magnet oryx:anchors="right" oryx:cx="99" oryx:cy="60"/><oryx:magnet oryx:anchors="top" oryx:cx="25" oryx:cy="1"/><oryx:magnet oryx:anchors="top" oryx:cx="50" oryx:cy="1"/><oryx:magnet oryx:anchors="top" oryx:cx="75" oryx:cy="1"/><oryx:magnet oryx:cx="50" oryx:cy="40" oryx:default="yes"/></oryx:magnets><g pointer-events="fill" oryx:minimumSize="50 40"><defs><radialGradient id="background" cx="10%" cy="10%" r="100%" fx="10%" fy="10%"><stop offset="0%" stop-color="#fff" stop-opacity="1"/><stop id="fill_el" offset="100%" stop-color="#ffc" stop-opacity="1"/></radialGradient></defs><rect id="text_frame" width="94" height="79" x="1" y="1" fill="none" stroke="none" stroke-width="0" rx="10" ry="10" oryx:anchors="bottom top right left"/><rect id="bg_frame" width="100" height="80" x="0" y="0" fill="url(#background) #ffffcc" stroke="#000" stroke-width="1" rx="10" ry="10" oryx:resize="vertical horizontal"/><g id="receiveTask"><path fill="none" stroke="#000" stroke-width="1" d="M8,11 L8,21 L24,21 L24,11z M8,11 L16,17 L24,11" oryx:anchors="left top"/></g><g id="loop"><path id="path2396" d="M 47.608384,75.188343 L 47.608384,78.188343 L 44.608384,78.188343 M 47.608384,78.188343 A 4.875,4.875 0 1 1 51.639336,78.189378" oryx:anchors="bottom" style="opacity:1;fill:none;fill-opacity:1;stroke:#000;stroke-width:1.5;stroke-linecap:round;stroke-linejoin:round;stroke-miterlimit:2.0999999;stroke-dasharray:none;stroke-opacity:1"/></g><g id="parallel"><path fill="none" stroke="#000" stroke-width="2" d="M46 70 v8 M50 70 v8 M54 70 v8" oryx:anchors="bottom"/></g><g id="sequential"><path fill="none" stroke="#000" stroke-width="2" d="M46,76h10M46,72h10 M46,68h10" oryx:anchors="bottom"/></g><g id="compensation"><path fill="none" stroke="#000" stroke-width="1" d="M 62 74 L 66 70 L 66 78 L 62 74 L 62 70 L 58 74 L 62 78 L 62 74" oryx:anchors="bottom"/></g></g></svg>