<svg xmlns="http://www.w3.org/2000/svg" xmlns:oryx="http://www.b3mn.org/oryx" xmlns:svg="http://www.w3.org/2000/svg" xmlns:xlink="http://www.w3.org/1999/xlink" width="102" height="82" version="1.0"><oryx:magnets><oryx:magnet oryx:anchors="left" oryx:cx="1" oryx:cy="20"/><oryx:magnet oryx:anchors="left" oryx:cx="1" oryx:cy="40"/><oryx:magnet oryx:anchors="left" oryx:cx="1" oryx:cy="60"/><oryx:magnet oryx:anchors="bottom" oryx:cx="25" oryx:cy="79"/><oryx:magnet oryx:anchors="bottom" oryx:cx="50" oryx:cy="79"/><oryx:magnet oryx:anchors="bottom" oryx:cx="75" oryx:cy="79"/><oryx:magnet oryx:anchors="right" oryx:cx="99" oryx:cy="20"/><oryx:magnet oryx:anchors="right" oryx:cx="99" oryx:cy="40"/><oryx:magnet oryx:anchors="right" oryx:cx="99" oryx:cy="60"/><oryx:magnet oryx:anchors="top" oryx:cx="25" oryx:cy="1"/><oryx:magnet oryx:anchors="top" oryx:cx="50" oryx:cy="1"/><oryx:magnet oryx:anchors="top" oryx:cx="75" oryx:cy="1"/><oryx:magnet oryx:cx="50" oryx:cy="40" oryx:default="yes"/></oryx:magnets><g pointer-events="fill" oryx:minimumSize="50 40"><defs><radialGradient id="background" cx="10%" cy="10%" r="100%" fx="10%" fy="10%"><stop offset="0%" stop-color="#fff" stop-opacity="1"/><stop id="fill_el" offset="100%" stop-color="#ffc" stop-opacity="1"/></radialGradient></defs><rect id="text_frame" width="94" height="79" x="1" y="1" fill="none" stroke="none" stroke-width="0" rx="10" ry="10" oryx:anchors="bottom top right left"/><rect id="bg_frame" width="100" height="80" x="0" y="0" fill="url(#background) #ffffcc" stroke="#000" stroke-width="1" rx="10" ry="10" oryx:resize="vertical horizontal"/><g id="serviceTask" transform="scale(0.7,0.7) translate(8,8)"><polygon style="opacity:1;fill:#fff;stroke:#000" id="teethForeground" points="15.392 5.064 17.954 2.502 20.347 4.895 17.786 7.455 18.729 9.732 22.353 9.732 22.353 13.115 18.731 13.115 17.788 15.392 20.351 17.955 17.958 20.347 15.397 17.786 13.12 18.729 13.12 22.353 9.737 22.353 9.737 18.731 7.46 17.788 4.897 20.35 2.506 17.958 5.066 15.397 4.124 13.12 .5 13.12 .5 9.737 4.121 9.737 5.065 7.461 2.503 4.898 4.895 2.506 7.455 5.066 9.732 4.125 9.732 .5 13.116 .5 13.116 4.121" oryx:anchors="top left"/><circle style="opacity:1;fill:none;stroke:#000" id="ringForeground" cx="11.427" cy="11.426" r="3.714" oryx:anchors="top left"/><polygon style="opacity:1;fill:#fff;stroke:#000" id="teethBackground" points="21.392 11.064 23.954 8.502 26.347 10.895 23.786 13.455 24.729 15.732 28.353 15.732 28.353 19.115 24.731 19.115 23.788 21.392 26.351 23.955 23.958 26.347 21.397 23.786 19.12 24.729 19.12 28.353 15.737 28.353 15.737 24.731 13.46 23.788 10.897 26.35 8.506 23.958 11.066 21.397 10.124 19.12 6.5 19.12 6.5 15.737 10.121 15.737 11.065 13.461 8.503 10.898 10.895 8.506 13.455 11.066 15.732 10.125 15.732 6.5 19.116 6.5 19.116 10.121" oryx:anchors="top left"/><circle style="opacity:1;fill:none;stroke:#000" id="ringBackground" cx="17.427" cy="17.426" r="3.714" oryx:anchors="top left"/></g><g id="loop"><path id="path2396" d="M 47.608384,75.188343 L 47.608384,78.188343 L 44.608384,78.188343 M 47.608384,78.188343 A 4.875,4.875 0 1 1 51.639336,78.189378" oryx:anchors="bottom" style="opacity:1;fill:none;fill-opacity:1;stroke:#000;stroke-width:1.5;stroke-linecap:round;stroke-linejoin:round;stroke-miterlimit:2.0999999;stroke-dasharray:none;stroke-opacity:1"/></g><g id="parallel"><path fill="none" stroke="#000" stroke-width="2" d="M46 70 v8 M50 70 v8 M54 70 v8" oryx:anchors="bottom"/></g><g id="sequential"><path fill="none" stroke="#000" stroke-width="2" d="M46,76h10M46,72h10 M46,68h10" oryx:anchors="bottom"/></g><g id="compensation"><path fill="none" stroke="#000" stroke-width="1" d="M 62 74 L 66 70 L 66 78 L 62 74 L 62 70 L 58 74 L 62 78 L 62 74" oryx:anchors="bottom"/></g></g></svg>