<svg xmlns="http://www.w3.org/2000/svg" xmlns:oryx="http://www.b3mn.org/oryx" xmlns:svg="http://www.w3.org/2000/svg" xmlns:xlink="http://www.w3.org/1999/xlink" width="102" height="82" version="1.0"><oryx:magnets><oryx:magnet oryx:anchors="left" oryx:cx="1" oryx:cy="20"/><oryx:magnet oryx:anchors="left" oryx:cx="1" oryx:cy="40"/><oryx:magnet oryx:anchors="left" oryx:cx="1" oryx:cy="60"/><oryx:magnet oryx:anchors="bottom" oryx:cx="25" oryx:cy="79"/><oryx:magnet oryx:anchors="bottom" oryx:cx="50" oryx:cy="79"/><oryx:magnet oryx:anchors="bottom" oryx:cx="75" oryx:cy="79"/><oryx:magnet oryx:anchors="right" oryx:cx="99" oryx:cy="20"/><oryx:magnet oryx:anchors="right" oryx:cx="99" oryx:cy="40"/><oryx:magnet oryx:anchors="right" oryx:cx="99" oryx:cy="60"/><oryx:magnet oryx:anchors="top" oryx:cx="25" oryx:cy="1"/><oryx:magnet oryx:anchors="top" oryx:cx="50" oryx:cy="1"/><oryx:magnet oryx:anchors="top" oryx:cx="75" oryx:cy="1"/><oryx:magnet oryx:cx="50" oryx:cy="40" oryx:default="yes"/></oryx:magnets><g pointer-events="fill" oryx:minimumSize="50 40"><defs><radialGradient id="background" cx="10%" cy="10%" r="100%" fx="10%" fy="10%"><stop offset="0%" stop-color="#fff" stop-opacity="1"/><stop id="fill_el" offset="100%" stop-color="#ffc" stop-opacity="1"/></radialGradient></defs><rect id="text_frame" width="94" height="79" x="1" y="1" fill="none" stroke="none" stroke-width="0" rx="10" ry="10" oryx:anchors="bottom top right left"/><rect id="bg_frame" width="100" height="80" x="0" y="0" fill="url(#background) #ffffcc" stroke="#000" stroke-width="1" rx="10" ry="10" oryx:resize="vertical horizontal"/><g id="userTask" transform="scale(0.7,0.7) translate(8,8)"><path d="M0.585,24.167h24.083v-7.833c0,0-2.333-3.917-7.083-5.167h-9.25 c-4.417,1.333-7.833,5.75-7.833,5.75L0.585,24.167z" oryx:anchors="top left" style="opacity:1;fill:#f4f6f7;stroke:#000"/><path d="M 6 20 L 6 24" oryx:anchors="top left" style="opacity:1;fill:none;stroke:#000"/><path d="M 20 20 L 20 24" oryx:anchors="top left" style="opacity:1;fill:none;stroke:#000"/><circle cx="13.002" cy="5.916" r="5.417" fill="#000" stroke="#000" oryx:anchors="top left"/><path d="M8.043,7.083c0,0,2.814-2.426,5.376-1.807s4.624-0.693,4.624-0.693 c0.25,1.688,0.042,3.75-1.458,5.584c0,0,1.083,0.75,1.083,1.5s0.125,1.875-1,3s-5.5,1.25-6.75,0S8.668,12.834,8.668,12 s0.583-1.25,1.25-1.917C8.835,9.5,7.419,7.708,8.043,7.083z" oryx:anchors="top left" style="opacity:1;fill:#f0eff0;stroke:#000"/></g><g id="loop"><path id="path2396" d="M 47.608384,75.188343 L 47.608384,78.188343 L 44.608384,78.188343 M 47.608384,78.188343 A 4.875,4.875 0 1 1 51.639336,78.189378" oryx:anchors="bottom" style="opacity:1;fill:none;fill-opacity:1;stroke:#000;stroke-width:1.5;stroke-linecap:round;stroke-linejoin:round;stroke-miterlimit:2.0999999;stroke-dasharray:none;stroke-opacity:1"/></g><g id="parallel"><path fill="none" stroke="#000" stroke-width="2" d="M46 70 v8 M50 70 v8 M54 70 v8" oryx:anchors="bottom"/></g><g id="sequential"><path fill="none" stroke="#000" stroke-width="2" d="M46,76h10M46,72h10 M46,68h10" oryx:anchors="bottom"/></g><g id="compensation"><path fill="none" stroke="#000" stroke-width="1" d="M 62 74 L 66 70 L 66 78 L 62 74 L 62 70 L 58 74 L 62 78 L 62 74" oryx:anchors="bottom"/></g></g></svg>